<?xml version="1.0" encoding="utf-8"?>
<!-- Generator: Adobe Illustrator 21.0.0, SVG Export Plug-In . SVG Version: 6.00 Build 0)  -->
<svg version="1.1" id="Layer_1" xmlns="http://www.w3.org/2000/svg" xmlns:xlink="http://www.w3.org/1999/xlink" x="0px" y="0px"
	 viewBox="0 0 116 85" style="enable-background:new 0 0 116 85;" xml:space="preserve">
<style type="text/css">
	.st0{fill:#FFCE33;}
</style>
<g>
	<path class="st0" d="M60.4,79.3c3.8-4.2,7.8-17.4,7.8-36.1c0-10.4-1.3-20.1-3.6-27.4c-1.4-4.4-2.9-7.2-4.3-8.6c-0.8,0-1.6,0-2.4,0
		c-0.8,0-1.6,0-2.4,0c-3.8,4.2-7.8,17.4-7.8,36.1c0,10.4,1.3,20.1,3.6,27.4c1.4,4.4,2.9,7.2,4.3,8.6c0.8,0,1.6,0,2.4,0
		C58.8,79.3,59.6,79.3,60.4,79.3z"/>
	<path class="st0" d="M47.1,72c-2.4-7.7-3.8-17.9-3.8-28.7s1.3-21,3.8-28.7c0.9-2.8,1.8-5.1,2.9-7c-0.3,0-0.7,0.1-1,0.1
		c-11.7,4.9-20.3,19-20.3,35.7c0,16.6,8.5,30.8,20.3,35.7c0.3,0,0.7,0.1,1,0.1C48.9,77,47.9,74.7,47.1,72z"/>
	<path class="st0" d="M68.9,14.5c2.4,7.7,3.8,17.9,3.8,28.7s-1.3,21-3.8,28.7c-0.9,2.8-1.8,5.1-2.9,7c0.3,0,0.7-0.1,1-0.1
		c11.7-4.9,20.3-19,20.3-35.7c0-16.6-8.5-30.8-20.3-35.7c-0.3,0-0.7-0.1-1-0.1C67.1,9.4,68.1,11.7,68.9,14.5z"/>
	<path class="st0" d="M78.3,9.8c8.1,7.7,13.4,19.8,13.4,33.4c0,13.6-5.3,25.8-13.4,33.4C92.9,70.5,103,57.8,103,43.2
		C103,28.6,92.9,16,78.3,9.8z"/>
	<path class="st0" d="M94.9,15.4c7.8,7.4,12.5,17.2,12.5,27.8c0,10.7-4.7,20.4-12.5,27.8c12.9-6.6,21.1-16.6,21.1-27.8
		C116,32,107.8,22,94.9,15.4z"/>
	<path class="st0" d="M8.6,43.2c0-10.7,4.7-20.4,12.5-27.8C8.2,22,0,32,0,43.2c0,11.2,8.2,21.2,21.1,27.8
		C13.3,63.6,8.6,53.9,8.6,43.2z"/>
	<path class="st0" d="M37.7,76.7C29.6,69,24.3,56.9,24.3,43.2c0-13.6,5.3-25.8,13.4-33.4C23.1,16,13,28.6,13,43.2
		S23.1,70.5,37.7,76.7z"/>
</g>
<g>
	<path class="st0" d="M73.8,82c-4.5,1.9-10,3-15.8,3c-5.9,0-11.3-1.1-15.8-3c1.4,0.1,8.6,0.7,15.8,0.7C65.2,82.7,72.4,82.1,73.8,82z
		"/>
</g>
<g>
	<path class="st0" d="M73.8,5.9c0,0-0.9-3.1-2.4-4C68,0,62.1-0.1,58-0.1c-4.1,0-9.9,0.1-13.5,2c-1.5,0.8-2.4,4-2.4,4
		c1.4-0.2,8.6-1.3,15.8-1.3C65.2,4.6,72.4,5.7,73.8,5.9z"/>
</g>
</svg>
