<?xml version="1.0" encoding="utf-8"?>
<!-- Generator: Adobe Illustrator 21.0.0, SVG Export Plug-In . SVG Version: 6.00 Build 0)  -->
<svg version="1.1" id="Layer_1" xmlns="http://www.w3.org/2000/svg" xmlns:xlink="http://www.w3.org/1999/xlink" x="0px" y="0px"
	 viewBox="0 0 66 107" style="enable-background:new 0 0 66 107;" xml:space="preserve">
<style type="text/css">
	.st0{fill:#A6A6E2;}
</style>
<g>
	<g>
		<path class="st0" d="M42.5,6c0,0-0.5-3.1-1.4-4C39,0.1,35.5,0,33,0c-2.5,0-6,0.1-8.1,2c-0.9,0.8-1.4,4-1.4,4
			c0.9-0.2,5.2-1.3,9.5-1.3C37.3,4.7,41.7,5.8,42.5,6z"/>
	</g>
	<g>
		<path class="st0" d="M41.6,103.7c-2.5,2.1-5.4,3.3-8.6,3.3c-3.2,0-6.1-1.2-8.6-3.3c0.8,0.1,4.7,0.7,8.6,0.7
			C36.9,104.4,40.8,103.8,41.6,103.7z"/>
	</g>
	<g>
		<path class="st0" d="M62.6,41.5L42.5,8c-0.4-0.1-1.4-0.3-2.8-0.6l7.5,32.9c1.8,7.8,1.8,20,0,27.8l-7.8,34.1
			c0.8-0.1,1.6-0.2,2.1-0.2l21-35.1C66.8,59.9,66.8,48.5,62.6,41.5z"/>
		<path class="st0" d="M42.4,41.4L34.5,6.7c-0.5,0-1,0-1.5,0c-0.5,0-1,0-1.5,0l-7.9,34.7C22,48.4,22,59.9,23.6,67l8.1,35.5
			c0.4,0,0.9,0,1.3,0c0.4,0,0.9,0,1.3,0L42.4,67C44,59.9,44,48.4,42.4,41.4z"/>
		<path class="st0" d="M18.7,68.1c-1.8-7.8-1.8-20,0-27.8l7.5-32.9c-1.4,0.3-2.4,0.5-2.8,0.6L3.4,41.5c-4.2,7-4.2,18.4,0,25.5
			l21,35.1c0.5,0.1,1.3,0.1,2.1,0.2L18.7,68.1z"/>
	</g>
</g>
</svg>
