<?xml version="1.0" encoding="utf-8"?>
<!-- Generator: Adobe Illustrator 21.0.0, SVG Export Plug-In . SVG Version: 6.00 Build 0)  -->
<svg version="1.1" id="Layer_1" xmlns="http://www.w3.org/2000/svg" xmlns:xlink="http://www.w3.org/1999/xlink" x="0px" y="0px"
	 viewBox="0 0 62 122" style="enable-background:new 0 0 62 122;" xml:space="preserve">
<style type="text/css">
	.st0{clip-path:url(#SVGID_2_);}
	.st1{clip-path:url(#SVGID_4_);fill:#D53B55;}
	.st2{clip-path:url(#SVGID_6_);}
	.st3{clip-path:url(#SVGID_8_);fill:#D53B55;}
	.st4{clip-path:url(#SVGID_10_);}
	.st5{clip-path:url(#SVGID_12_);fill:#D53B55;}
	.st6{clip-path:url(#SVGID_14_);}
	.st7{clip-path:url(#SVGID_16_);fill:#D53B55;}
	.st8{clip-path:url(#SVGID_18_);}
	.st9{clip-path:url(#SVGID_20_);fill:#D53B55;}
</style>
<g>
	<defs>
		<path id="SVGID_1_" d="M45.5,5.3c0,0-0.8-2.8-2.2-3.6C40.1,0.1,34.7,0,31,0c-3.7,0-9.1,0.1-12.3,1.8c-1.4,0.7-2.2,3.6-2.2,3.6
			H45.5z"/>
	</defs>
	<clipPath id="SVGID_2_">
		<use xlink:href="#SVGID_1_"  style="overflow:visible;"/>
	</clipPath>
	<g class="st0">
		<defs>
			<rect id="SVGID_3_" x="-266.5" y="-390.3" width="1037.4" height="1029.8"/>
		</defs>
		<clipPath id="SVGID_4_">
			<use xlink:href="#SVGID_3_"  style="overflow:visible;"/>
		</clipPath>
		<rect x="11.4" y="-5" class="st1" width="39.1" height="15.4"/>
	</g>
</g>
<g>
	<defs>
		<path id="SVGID_5_" d="M45.5,119.3C41.3,121,36.4,122,31,122c-5.4,0-10.3-1-14.5-2.7C17.8,119.4,44.2,119.4,45.5,119.3"/>
	</defs>
	<clipPath id="SVGID_6_">
		<use xlink:href="#SVGID_5_"  style="overflow:visible;"/>
	</clipPath>
	<g class="st2">
		<defs>
			<rect id="SVGID_7_" x="-266.5" y="-390.3" width="1037.4" height="1029.8"/>
		</defs>
		<clipPath id="SVGID_8_">
			<use xlink:href="#SVGID_7_"  style="overflow:visible;"/>
		</clipPath>
		<rect x="11.4" y="114.3" class="st3" width="39.1" height="12.7"/>
	</g>
</g>
<g>
	<defs>
		<path id="SVGID_9_" d="M13,106.1V18.4c0-3.9,1.3-7.6,3.4-10.5h-1.8C6.5,7.9,0,14.4,0,22.4v79.7c0,8,6.5,14.5,14.6,14.5h1.8
			C14.3,113.6,13,110,13,106.1"/>
	</defs>
	<clipPath id="SVGID_10_">
		<use xlink:href="#SVGID_9_"  style="overflow:visible;"/>
	</clipPath>
	<g class="st4">
		<defs>
			<rect id="SVGID_11_" x="-266.5" y="-390.3" width="1037.4" height="1029.8"/>
		</defs>
		<clipPath id="SVGID_12_">
			<use xlink:href="#SVGID_11_"  style="overflow:visible;"/>
		</clipPath>
		<rect x="-5.1" y="2.9" class="st5" width="26.5" height="118.7"/>
	</g>
</g>
<g>
	<defs>
		<path id="SVGID_13_" d="M18,18.4v87.6c0,4.4,2.3,8.3,5.8,10.5h14.4c3.4-2.2,5.8-6.1,5.8-10.5V18.4c0-4.4-2.3-8.3-5.8-10.5H23.8
			C20.3,10.1,18,14,18,18.4"/>
	</defs>
	<clipPath id="SVGID_14_">
		<use xlink:href="#SVGID_13_"  style="overflow:visible;"/>
	</clipPath>
	<g class="st6">
		<defs>
			<rect id="SVGID_15_" x="-266.5" y="-390.3" width="1037.4" height="1029.8"/>
		</defs>
		<clipPath id="SVGID_16_">
			<use xlink:href="#SVGID_15_"  style="overflow:visible;"/>
		</clipPath>
		<rect x="13" y="2.9" class="st7" width="36.1" height="118.7"/>
	</g>
</g>
<g>
	<defs>
		<path id="SVGID_17_" d="M47.4,7.9h-1.8c2.2,2.9,3.4,6.6,3.4,10.5v87.6c0,3.9-1.3,7.6-3.4,10.5h1.8c8.1,0,14.6-6.5,14.6-14.5V22.4
			C62,14.4,55.5,7.9,47.4,7.9"/>
	</defs>
	<clipPath id="SVGID_18_">
		<use xlink:href="#SVGID_17_"  style="overflow:visible;"/>
	</clipPath>
	<g class="st8">
		<defs>
			<rect id="SVGID_19_" x="-266.5" y="-390.3" width="1037.4" height="1029.8"/>
		</defs>
		<clipPath id="SVGID_20_">
			<use xlink:href="#SVGID_19_"  style="overflow:visible;"/>
		</clipPath>
		<rect x="40.5" y="2.9" class="st9" width="26.5" height="118.7"/>
	</g>
</g>
</svg>
